<?xml version="1.0" encoding="UTF-8" standalone="no"?>
<svg
   xmlns:dc="http://purl.org/dc/elements/1.1/"
   xmlns:cc="http://creativecommons.org/ns#"
   xmlns:rdf="http://www.w3.org/1999/02/22-rdf-syntax-ns#"
   xmlns:svg="http://www.w3.org/2000/svg"
   xmlns="http://www.w3.org/2000/svg"
   xmlns:xlink="http://www.w3.org/1999/xlink"
   xmlns:sodipodi="http://sodipodi.sourceforge.net/DTD/sodipodi-0.dtd"
   xmlns:inkscape="http://www.inkscape.org/namespaces/inkscape"
   inkscape:export-ydpi="64"
   inkscape:export-xdpi="64"
   inkscape:export-filename="/Users/erlimar/Projects/erlimar-programador/backgrounds/Screencast-Screen-Black-1280x720.png"
   width="1920"
   height="1080"
   viewBox="0 0 507.99999 285.75001"
   version="1.1"
   id="svg8"
   inkscape:version="1.0beta2 (2b71d25, 2019-12-03)"
   sodipodi:docname="Screencast-Screen-Black-1920x1080-1280x720.svg">
  <defs
     id="defs2">
    <linearGradient
       id="linearGradient3305"
       inkscape:collect="always">
      <stop
         id="stop3301"
         offset="0"
         style="stop-color:#808080;stop-opacity:1" />
      <stop
         id="stop3303"
         offset="1"
         style="stop-color:#000000;stop-opacity:1" />
    </linearGradient>
    <linearGradient
       id="linearGradient3297"
       inkscape:collect="always">
      <stop
         id="stop3293"
         offset="0"
         style="stop-color:#666666;stop-opacity:1" />
      <stop
         id="stop3295"
         offset="1"
         style="stop-color:#333333;stop-opacity:1" />
    </linearGradient>
    <linearGradient
       id="linearGradient3289"
       inkscape:collect="always">
      <stop
         id="stop3285"
         offset="0"
         style="stop-color:#4d4d4d;stop-opacity:1" />
      <stop
         id="stop3287"
         offset="1"
         style="stop-color:#333333;stop-opacity:1" />
    </linearGradient>
    <filter
       id="filter2942"
       inkscape:label="Colorize"
       style="color-interpolation-filters:sRGB;">
      <feComposite
         id="feComposite2928"
         result="composite1"
         k2="0.568862"
         k1="0"
         operator="arithmetic"
         in2="SourceGraphic" />
      <feColorMatrix
         id="feColorMatrix2930"
         result="colormatrix1"
         type="saturate"
         values="1"
         in="composite1" />
      <feFlood
         id="feFlood2932"
         result="flood1"
         flood-color="rgb(139,19,21)"
         flood-opacity="1" />
      <feBlend
         id="feBlend2934"
         result="blend1"
         mode="multiply"
         in2="colormatrix1"
         in="flood1" />
      <feBlend
         id="feBlend2936"
         result="blend2"
         mode="screen"
         in2="blend1" />
      <feColorMatrix
         id="feColorMatrix2938"
         result="colormatrix2"
         type="saturate"
         values="1"
         in="blend2" />
      <feComposite
         id="feComposite2940"
         result="composite2"
         k2="1"
         operator="in"
         in2="SourceGraphic"
         in="colormatrix2" />
    </filter>
    <linearGradient
       gradientUnits="userSpaceOnUse"
       y2="315.75623"
       x2="214.4281"
       y1="-27.3967"
       x1="206.80508"
       id="linearGradient3291"
       xlink:href="#linearGradient3289"
       inkscape:collect="always" />
    <linearGradient
       gradientUnits="userSpaceOnUse"
       y2="1133.1273"
       x2="896.73633"
       y1="770.28546"
       x1="873.29572"
       id="linearGradient3299"
       xlink:href="#linearGradient3297"
       inkscape:collect="always" />
    <linearGradient
       gradientUnits="userSpaceOnUse"
       y2="314.16089"
       x2="190.94235"
       y1="239.48926"
       x1="194.26927"
       id="linearGradient3307"
       xlink:href="#linearGradient3305"
       inkscape:collect="always" />
    <filter
       id="filter3733"
       inkscape:label="Drop Shadow"
       style="color-interpolation-filters:sRGB;">
      <feFlood
         id="feFlood3723"
         result="flood"
         flood-color="rgb(0,0,0)"
         flood-opacity="0.501961" />
      <feComposite
         id="feComposite3725"
         result="composite1"
         operator="in"
         in2="SourceGraphic"
         in="flood" />
      <feGaussianBlur
         id="feGaussianBlur3727"
         result="blur"
         stdDeviation="4.2042"
         in="composite1" />
      <feOffset
         id="feOffset3729"
         result="offset"
         dy="1.79641"
         dx="1.79641" />
      <feComposite
         id="feComposite3731"
         result="composite2"
         operator="over"
         in2="offset"
         in="SourceGraphic" />
    </filter>
    <filter
       id="filter3745"
       inkscape:label="Drop Shadow"
       style="color-interpolation-filters:sRGB;">
      <feFlood
         id="feFlood3735"
         result="flood"
         flood-color="rgb(0,0,0)"
         flood-opacity="0.501961" />
      <feComposite
         id="feComposite3737"
         result="composite1"
         operator="in"
         in2="SourceGraphic"
         in="flood" />
      <feGaussianBlur
         id="feGaussianBlur3739"
         result="blur"
         stdDeviation="4.2042"
         in="composite1" />
      <feOffset
         id="feOffset3741"
         result="offset"
         dy="1.79641"
         dx="1.79641" />
      <feComposite
         id="feComposite3743"
         result="composite2"
         operator="over"
         in2="offset"
         in="SourceGraphic" />
    </filter>
  </defs>
  <sodipodi:namedview
     id="base"
     pagecolor="#ffffff"
     bordercolor="#666666"
     borderopacity="1.0"
     inkscape:pageopacity="0.0"
     inkscape:pageshadow="2"
     inkscape:zoom="0.67970041"
     inkscape:cx="901.98325"
     inkscape:cy="505.84265"
     inkscape:document-units="mm"
     inkscape:current-layer="layer1"
     inkscape:document-rotation="0"
     showgrid="false"
     units="px"
     showguides="true"
     inkscape:guide-bbox="true"
     inkscape:window-width="1920"
     inkscape:window-height="1035"
     inkscape:window-x="0"
     inkscape:window-y="23"
     inkscape:window-maximized="1">
    <sodipodi:guide
       position="85.206216,241.0835"
       orientation="1,0"
       id="guide837" />
    <sodipodi:guide
       position="423.03712,247.9615"
       orientation="1,0"
       id="guide839" />
    <sodipodi:guide
       position="418.42481,237.68496"
       orientation="0,-1"
       id="guide841" />
    <sodipodi:guide
       position="410.57581,48.014142"
       orientation="0,-1"
       id="guide843" />
  </sodipodi:namedview>
  <metadata
     id="metadata5">
    <rdf:RDF>
      <cc:Work
         rdf:about="">
        <dc:format>image/svg+xml</dc:format>
        <dc:type
           rdf:resource="http://purl.org/dc/dcmitype/StillImage" />
        <dc:title></dc:title>
      </cc:Work>
    </rdf:RDF>
  </metadata>
  <g
     inkscape:label="Camada 1"
     inkscape:groupmode="layer"
     id="layer1">
    <rect
       y="0"
       x="0"
       height="285.75"
       width="508"
       id="rect2072"
       style="fill:url(#linearGradient3291);stroke:none;stroke-width:1.0525;stroke-linejoin:round;stroke-miterlimit:4;stroke-dasharray:none;stroke-dashoffset:0;fill-opacity:1" />
    <path
       transform="scale(0.26458333)"
       d="M 31.501953 698.04688 A 69.555126 58.326498 0 0 0 0 704.37305 L 0 808.37305 L 0 1080 L 1920 1080 L 1920 925.48828 L 1920 752.56836 A 165.3104 103.55293 0 0 0 1829.0195 735.47461 A 165.3104 103.55293 0 0 0 1679.1836 795.28125 A 73.609901 50.840731 0 0 0 1633.7266 812.73047 A 101.36959 78.600405 0 0 0 1598.5195 807.83789 A 101.36959 78.600405 0 0 0 1513.5977 843.52344 A 124.45067 58.638397 0 0 0 1408.8809 816.57031 A 124.45067 58.638397 0 0 0 1316.1953 836.07812 A 48.34549 24.640613 0 0 0 1316.2441 834.97266 A 48.34549 24.640613 0 0 0 1269.9551 810.35547 A 89.829041 55.831238 0 0 0 1182.748 767.91406 A 89.829041 55.831238 0 0 0 1097.5352 806.08398 A 64.564623 36.18115 0 0 0 1062.666 800.35156 A 64.564623 36.18115 0 0 0 1024.5352 807.33594 A 101.36959 78.60041 0 0 0 929.79297 756.68555 A 101.36959 78.60041 0 0 0 828.42383 835.28516 A 101.36959 78.60041 0 0 0 831.37891 854.11914 A 104.17675 52.088363 0 0 0 734.24609 905.15625 A 55.207438 33.685899 0 0 0 687.06445 922.30273 A 74.233729 33.685899 0 0 0 641.2793 915.13281 A 74.233729 33.685899 0 0 0 580.44922 929.51172 A 32.126374 16.531047 0 0 0 565.48633 927.60938 A 32.126374 16.531047 0 0 0 561.26562 927.75391 A 68.307507 33.685899 0 0 0 493.125 896.41797 A 68.307507 33.685899 0 0 0 474.60742 897.67969 A 83.279007 65.188438 0 0 0 391.44336 835.9082 A 83.279007 65.188438 0 0 0 324.07031 862.77734 A 34.933521 23.704895 0 0 0 300.67578 854.13672 A 105.85595 57.366434 11.409363 0 0 204.26172 792.17578 A 105.85595 57.366434 11.409363 0 0 162.56836 789.59375 A 66.706908 37.048801 11.975277 0 0 113.26758 766.83594 A 66.706908 37.048801 11.975277 0 0 100.25 765.22656 A 69.555126 58.326498 0 0 0 101.05859 756.37305 A 69.555126 58.326498 0 0 0 31.501953 698.04688 z "
       style="fill:url(#linearGradient3299);stroke:none;stroke-width:3.93071;stroke-linejoin:round;stroke-miterlimit:4;stroke-dasharray:none;stroke-dashoffset:0;fill-opacity:1"
       id="path3196" />
    <path
       inkscape:connector-curvature="0"
       d="M 10.807092,230.36216 A 19.262363,13.627796 0 0 0 0,232.74238 v 22.49526 30.51235 h 507.99999 v -28.88454 a 25.29005,17.689931 0 0 0 -9.66814,-1.3441 25.29005,17.689931 0 0 0 -24.53907,13.41107 18.738223,9.1725577 0 0 0 -4.81314,-0.30748 18.738223,9.1725577 0 0 0 -17.98444,6.59805 13.627797,6.551827 0 0 0 -5.34644,0.87074 18.738222,9.1725577 0 0 0 -12.83488,-2.48925 18.738222,9.1725577 0 0 0 -12.72429,2.43914 18.738222,9.1725577 0 0 0 -13.92317,-4.22558 22.669317,12.579506 0 0 0 -21.04988,-7.91064 22.669317,12.579506 0 0 0 -4.49482,0.25011 26.207303,17.165784 0 0 0 0.17052,-1.95337 26.207303,17.165784 0 0 0 -26.20716,-17.16587 26.207303,17.165784 0 0 0 -23.85023,10.05106 23.717608,12.317433 0 0 0 -13.49531,-2.18901 23.717608,12.317433 0 0 0 -9.45213,1.02061 23.717608,12.317433 0 0 0 -19.37608,-5.21364 23.717608,12.317433 0 0 0 -22.30096,8.12509 14.151942,7.2070115 0 0 0 -0.10647,-5.2e-4 14.151942,7.2070115 0 0 0 -14.02239,6.2358 30.662549,11.26914 0 0 0 -21.09535,-3.09129 30.662549,11.26914 0 0 0 -28.11508,6.7722 25.421079,10.482924 0 0 0 -23.77529,-6.7722 25.421079,10.482924 0 0 0 -8.79378,0.64699 16.248522,8.1242666 0 0 0 -13.74438,-3.7915 16.248522,8.1242666 0 0 0 -0.29042,10e-4 39.17992,16.772674 0 0 0 -36.7931,-11.00812 39.17992,16.772674 0 0 0 -29.468488,5.71903 25.421078,10.482924 0 0 0 -20.718632,-4.40903 25.421078,10.482924 0 0 0 -15.553573,2.19108 16.248521,8.1242666 0 0 0 -14.322639,-4.28759 16.248521,8.1242666 0 0 0 -2.754871,0.11782 9.6966989,5.7656092 0 0 0 -6.531901,-2.64687 19.262363,13.627796 0 0 0 -19.148184,-12.14706 19.262363,13.627796 0 0 0 -0.06873,0 z"
       style="fill:url(#linearGradient3307);stroke:none;stroke-width:1.04;stroke-linejoin:round;stroke-miterlimit:4;stroke-dasharray:none;stroke-dashoffset:0;fill-opacity:1"
       id="path3098" />
    <rect
       y="99.719315"
       x="2.99824"
       height="78.372551"
       width="104.83089"
       id="rect2070"
       style="fill:#ffffff;stroke:none;stroke-width:1.00245;stroke-linejoin:round;stroke-miterlimit:4;stroke-dasharray:none;stroke-dashoffset:0;filter:url(#filter3745)" />
    <g
       style="fill:#ffffff"
       id="g1307"
       transform="matrix(0.95720768,0,0,0.95720768,-39.926699,-6.0884931)">
      <g
         transform="translate(-9.0558233,-37.159063)"
         style="font-style:normal;font-variant:normal;font-weight:bold;font-stretch:normal;font-size:25.39999999999999858px;line-height:1.25;font-family:'Miriam Libre';-inkscape-font-specification:'Miriam Libre Bold';text-align:center;letter-spacing:-0.66145799999999999px;text-anchor:middle;fill:#ffffff;fill-opacity:1;stroke:none;stroke-width:0.264583"
         id="text839"
         aria-label="ERLI">
        <path
           id="path873"
           style="font-style:normal;font-variant:normal;font-weight:bold;font-stretch:normal;font-family:'Miriam Libre';-inkscape-font-specification:'Miriam Libre Bold';text-align:center;letter-spacing:-0.66145799999999999px;text-anchor:middle;fill:#ffffff;stroke-width:0.264583"
           d="m 87.234121,83.913567 q -0.4572,0 -0.7874,-0.3048 -0.3048,-0.3302 -0.3048,-0.7874 v -15.9766 q 0,-0.4572 0.3048,-0.762 0.3302,-0.3302 0.7874,-0.3302 h 8.6614 q 0.2286,0 0.381,0.1524 0.1524,0.1524 0.1524,0.381 v 1.905 q 0,0.2286 -0.1524,0.381 -0.1524,0.1524 -0.381,0.1524 h -6.6548 v 4.318 h 4.953 q 0.2286,0 0.381,0.1524 0.1524,0.1524 0.1524,0.381 v 1.8034 q 0,0.2286 -0.1524,0.381 -0.1524,0.1524 -0.381,0.1524 h -4.953 v 5.0292 h 6.6548 q 0.2286,0 0.381,0.1524 0.1524,0.1524 0.1524,0.381 v 1.905 q 0,0.2286 -0.1524,0.381 -0.1524,0.1524 -0.381,0.1524 z"
           inkscape:connector-curvature="0" />
        <path
           id="path875"
           style="font-style:normal;font-variant:normal;font-weight:bold;font-stretch:normal;font-family:'Miriam Libre';-inkscape-font-specification:'Miriam Libre Bold';text-align:center;letter-spacing:-0.66145799999999999px;text-anchor:middle;fill:#ffffff;stroke-width:0.264583"
           d="m 99.805268,83.913567 q -0.2286,0 -0.381,-0.1524 -0.1524,-0.1524 -0.1524,-0.381 v -16.5354 q 0,-0.4572 0.3048,-0.762 0.3302,-0.3302 0.787402,-0.3302 h 4.7498 q 1.5494,0 2.8448,0.7366 1.2954,0.7366 2.0574,2.0066 0.762,1.27 0.762,2.7686 0,1.8288 -1.0922,3.2766 -1.0922,1.4224 -2.8448,1.9558 l 4.2164,6.5278 q 0.1016,0.1778 0.1016,0.3556 0,0.2286 -0.1778,0.381 -0.1524,0.1524 -0.4064,0.1524 h -2.0828 q -0.4318,0 -0.6604,-0.3556 l -4.2164,-6.7818 h -1.2446 v 6.604 q 0,0.2286 -0.1524,0.381 -0.1524,0.1524 -0.381,0.1524 z m 5.156202,-10.0584 q 1.1684,0 1.905,-0.7112 0.762,-0.7366 0.762,-1.8542 0,-1.143 -0.762,-1.8796 -0.7366,-0.7366 -1.905,-0.7366 h -2.5908 v 5.1816 z"
           inkscape:connector-curvature="0" />
        <path
           id="path877"
           style="font-style:normal;font-variant:normal;font-weight:bold;font-stretch:normal;font-family:'Miriam Libre';-inkscape-font-specification:'Miriam Libre Bold';text-align:center;letter-spacing:-0.66145799999999999px;text-anchor:middle;fill:#ffffff;stroke-width:0.264583"
           d="m 114.78386,83.913567 q -0.4572,0 -0.7874,-0.3048 -0.3048,-0.3302 -0.3048,-0.7874 v -16.5354 q 0,-0.2286 0.1524,-0.381 0.1524,-0.1524 0.381,-0.1524 h 2.032 q 0.2286,0 0.381,0.1524 0.1524,0.1524 0.1524,0.381 v 14.6558 h 5.8928 q 0.2286,0 0.381,0.1524 0.1524,0.1524 0.1524,0.381 v 1.905 q 0,0.2286 -0.1524,0.381 -0.1524,0.1524 -0.381,0.1524 z"
           inkscape:connector-curvature="0" />
        <path
           id="path879"
           style="font-style:normal;font-variant:normal;font-weight:bold;font-stretch:normal;font-family:'Miriam Libre';-inkscape-font-specification:'Miriam Libre Bold';text-align:center;letter-spacing:-0.66145799999999999px;text-anchor:middle;fill:#ffffff;stroke-width:0.264583"
           d="m 125.33333,83.913567 q -0.2286,0 -0.381,-0.1524 -0.1524,-0.1524 -0.1524,-0.381 v -1.7526 q 0,-0.2286 0.1524,-0.381 0.1524,-0.1524 0.381,-0.1524 h 2.159 v -12.5222 h -2.159 q -0.2286,0 -0.381,-0.1524 -0.1524,-0.1524 -0.1524,-0.381 v -1.7526 q 0,-0.2286 0.1524,-0.381 0.1524,-0.1524 0.381,-0.1524 h 7.4168 q 0.2286,0 0.381,0.1524 0.1524,0.1524 0.1524,0.381 v 1.7526 q 0,0.2286 -0.1524,0.381 -0.1524,0.1524 -0.381,0.1524 h -2.159 v 12.5222 h 2.159 q 0.2286,0 0.381,0.1524 0.1524,0.1524 0.1524,0.381 v 1.7526 q 0,0.2286 -0.1524,0.381 -0.1524,0.1524 -0.381,0.1524 z"
           inkscape:connector-curvature="0" />
      </g>
      <g
         transform="translate(-9.0558233,-37.159063)"
         style="font-style:normal;font-variant:normal;font-weight:bold;font-stretch:normal;font-size:25.39999999999999858px;line-height:1.25;font-family:'Miriam Libre';-inkscape-font-specification:'Miriam Libre Bold';text-align:center;letter-spacing:-2.52412999999999998px;text-anchor:middle;fill:#ffffff;fill-opacity:1;stroke:none;stroke-width:0.264583"
         id="text843"
         aria-label="MAR">
        <path
           id="path882"
           style="font-style:normal;font-variant:normal;font-weight:bold;font-stretch:normal;font-family:'Miriam Libre';-inkscape-font-specification:'Miriam Libre Bold';text-align:center;letter-spacing:-2.52412999999999998px;text-anchor:middle;fill:#ffffff;stroke-width:0.264583"
           d="m 95.133751,105.21992 q -0.2794,0 -0.508,-0.1524 -0.2032,-0.1524 -0.2794,-0.4064 l -3.3528,-10.2616 -0.635,-2.286 -0.254,2.3622 -1.0922,9.9568 q -0.0508,0.2794 -0.254,0.4572 -0.2032,0.1778 -0.4572,0.1778 h -1.905 q -0.2794,0 -0.4318,-0.1778 -0.1524,-0.1778 -0.127,-0.4572 l 2.1082,-16.8402 q 0.0254,-0.3302 0.254,-0.5334 0.254,-0.2286 0.6096,-0.2286 h 2.3114 q 0.2794,0 0.4826,0.1778 0.2286,0.1524 0.3048,0.4064 l 3.81,11.7094 0.508,1.7526 0.508,-1.7272 3.835399,-11.7602 q 0.0762,-0.254 0.2794,-0.4064 0.2286,-0.1524 0.508,-0.1524 h 2.1082 q 0.3556,0 0.5842,0.2286 0.254,0.2032 0.2794,0.5334 l 2.1082,16.8402 q 0.0254,0.2794 -0.127,0.4572 -0.1524,0.1778 -0.4318,0.1778 h -1.9812 q -0.2794,0 -0.4826,-0.1778 -0.2032,-0.1778 -0.2286,-0.4318 l -1.143,-10.16 -0.254,-2.1844 -0.6604,2.3876 -3.276599,10.1346 q -0.0762,0.254 -0.3048,0.4318 -0.2032,0.1524 -0.4826,0.1524 z"
           inkscape:connector-curvature="0" />
        <path
           id="path884"
           style="font-style:normal;font-variant:normal;font-weight:bold;font-stretch:normal;font-family:'Miriam Libre';-inkscape-font-specification:'Miriam Libre Bold';text-align:center;letter-spacing:-2.52412999999999998px;text-anchor:middle;fill:#ffffff;stroke-width:0.264583"
           d="m 107.29757,105.06752 q -0.254,0 -0.4318,-0.1524 -0.1778,-0.1778 -0.1778,-0.4318 0,-0.127 0.0254,-0.2032 l 5.5118,-16.9418 q 0.0762,-0.254 0.2794,-0.4064 0.2286,-0.1524 0.508,-0.1524 h 1.9812 q 0.2794,0 0.4826,0.1524 0.2286,0.1524 0.3048,0.4064 l 5.5118,16.9418 q 0.0254,0.0762 0.0254,0.2032 0,0.254 -0.1778,0.4318 -0.1778,0.1524 -0.4318,0.1524 h -1.8288 q -0.2794,0 -0.508,-0.1524 -0.2032,-0.1778 -0.2794,-0.4318 l -1.143,-3.6576 h -5.9436 l -1.143,3.6576 q -0.0762,0.254 -0.3048,0.4318 -0.2032,0.1524 -0.4826,0.1524 z m 8.763,-7.112 -2.0828,-6.7818 -2.0828,6.7818 z"
           inkscape:connector-curvature="0" />
        <path
           id="path886"
           style="font-style:normal;font-variant:normal;font-weight:bold;font-stretch:normal;font-family:'Miriam Libre';-inkscape-font-specification:'Miriam Libre Bold';text-align:center;letter-spacing:-2.52412999999999998px;text-anchor:middle;fill:#ffffff;stroke-width:0.264583"
           d="m 122.23792,105.06752 q -0.2286,0 -0.381,-0.1524 -0.1524,-0.1524 -0.1524,-0.381 v -16.5354 q 0,-0.4572 0.3048,-0.762 0.3302,-0.3302 0.7874,-0.3302 h 4.7498 q 1.5494,0 2.8448,0.7366 1.2954,0.7366 2.0574,2.0066 0.762,1.27 0.762,2.7686 0,1.8288 -1.0922,3.2766 -1.0922,1.4224 -2.8448,1.9558 l 4.2164,6.5278 q 0.1016,0.1778 0.1016,0.3556 0,0.2286 -0.1778,0.381 -0.1524,0.1524 -0.4064,0.1524 h -2.0828 q -0.4318,0 -0.6604,-0.3556 l -4.2164,-6.7818 h -1.2446 v 6.604 q 0,0.2286 -0.1524,0.381 -0.1524,0.1524 -0.381,0.1524 z m 5.1562,-10.0584 q 1.1684,0 1.905,-0.7112 0.762,-0.7366 0.762,-1.8542 0,-1.143 -0.762,-1.8796 -0.7366,-0.7366 -1.905,-0.7366 h -2.5908 v 5.1816 z"
           inkscape:connector-curvature="0" />
      </g>
      <g
         transform="translate(-9.0558233,-37.159063)"
         style="font-style:normal;font-variant:normal;font-weight:normal;font-stretch:normal;font-size:5.64444000000000035px;line-height:1.25;font-family:'Miriam Libre';-inkscape-font-specification:'Miriam Libre';letter-spacing:0.93927099999999997px;fill:#ffffff;fill-opacity:1;stroke:none;stroke-width:0.264583"
         id="text847"
         aria-label="PROGRAMADOR">
        <path
           id="path889"
           style="font-style:normal;font-variant:normal;font-weight:normal;font-stretch:normal;font-family:'Miriam Libre';-inkscape-font-specification:'Miriam Libre';letter-spacing:0.93927099999999997px;fill:#ffffff;stroke-width:0.264583"
           d="m 85.902902,111.92519 q -0.03387,0 -0.05644,-0.0226 -0.02258,-0.0226 -0.02258,-0.0564 v -3.64066 q 0,-0.0847 0.05644,-0.14111 0.06209,-0.0621 0.146755,-0.0621 h 0.948266 q 0.338667,0 0.620889,0.16369 0.282222,0.16369 0.44591,0.44026 0.163689,0.27658 0.163689,0.6096 0,0.33302 -0.163689,0.6096 -0.163688,0.27658 -0.44591,0.44027 -0.282222,0.16369 -0.620889,0.16369 h -0.688621 v 1.41675 q 0,0.0339 -0.02258,0.0564 -0.02258,0.0226 -0.05644,0.0226 z m 1.044221,-1.93039 q 0.214489,0 0.395111,-0.1016 0.180622,-0.10725 0.282222,-0.28787 0.107244,-0.18062 0.107244,-0.38947 0,-0.20884 -0.107244,-0.38946 -0.1016,-0.18063 -0.282222,-0.28223 -0.180622,-0.10724 -0.395111,-0.10724 h -0.660399 v 1.55787 z"
           inkscape:connector-curvature="0" />
        <path
           id="path891"
           style="font-style:normal;font-variant:normal;font-weight:normal;font-stretch:normal;font-family:'Miriam Libre';-inkscape-font-specification:'Miriam Libre';letter-spacing:0.93927099999999997px;fill:#ffffff;stroke-width:0.264583"
           d="m 89.984097,111.92519 q -0.03387,0 -0.05644,-0.0226 -0.02258,-0.0226 -0.02258,-0.0564 v -3.64066 q 0,-0.0847 0.05644,-0.14111 0.06209,-0.0621 0.146755,-0.0621 h 0.982133 q 0.316088,0 0.575733,0.1524 0.265288,0.1524 0.417688,0.41769 0.1524,0.25964 0.1524,0.57008 0,0.41205 -0.259644,0.72249 -0.259644,0.31045 -0.654755,0.38947 l 0.936977,1.51271 q 0.01693,0.0226 0.01693,0.0564 0,0.0452 -0.03387,0.0734 -0.02822,0.0282 -0.07338,0.0282 h -0.287867 q -0.05644,0 -0.08467,-0.0508 l -0.987777,-1.59737 h -0.440267 v 1.56915 q 0,0.0339 -0.02258,0.0564 -0.02258,0.0226 -0.05644,0.0226 z m 1.072444,-2.08279 q 0.3048,0 0.502355,-0.19756 0.2032,-0.19756 0.2032,-0.49671 0,-0.31044 -0.2032,-0.508 -0.197555,-0.2032 -0.502355,-0.2032 h -0.688622 v 1.40547 z"
           inkscape:connector-curvature="0" />
        <path
           id="path893"
           style="font-style:normal;font-variant:normal;font-weight:normal;font-stretch:normal;font-family:'Miriam Libre';-inkscape-font-specification:'Miriam Libre';letter-spacing:0.93927099999999997px;fill:#ffffff;stroke-width:0.264583"
           d="m 95.289343,111.99857 q -0.372533,0 -0.694267,-0.18627 -0.316088,-0.18626 -0.502355,-0.50235 -0.186266,-0.31609 -0.186266,-0.68862 v -1.31516 q 0,-0.37253 0.186266,-0.68862 0.186267,-0.31609 0.502355,-0.50235 0.321734,-0.18627 0.694267,-0.18627 0.372533,0 0.688621,0.18627 0.321733,0.18626 0.508,0.50235 0.186266,0.31609 0.186266,0.68862 v 1.31516 q 0,0.37253 -0.186266,0.68862 -0.186267,0.31609 -0.508,0.50235 -0.316088,0.18627 -0.688621,0.18627 z m 0,-0.43462 q 0.248355,0 0.457199,-0.12982 0.214489,-0.12982 0.338667,-0.34431 0.124177,-0.22014 0.124177,-0.46849 v -1.31516 q 0,-0.24835 -0.124177,-0.46284 -0.124178,-0.22013 -0.338667,-0.34996 -0.208844,-0.12982 -0.457199,-0.12982 -0.248356,0 -0.462844,0.12982 -0.208845,0.12983 -0.333022,0.34996 -0.124178,0.21449 -0.124178,0.46284 v 1.31516 q 0,0.24835 0.124178,0.46849 0.124177,0.21449 0.333022,0.34431 0.214488,0.12982 0.462844,0.12982 z"
           inkscape:connector-curvature="0" />
        <path
           id="path895"
           style="font-style:normal;font-variant:normal;font-weight:normal;font-stretch:normal;font-family:'Miriam Libre';-inkscape-font-specification:'Miriam Libre';letter-spacing:0.93927099999999997px;fill:#ffffff;stroke-width:0.264583"
           d="m 99.838939,111.99293 q -0.372533,0 -0.688622,-0.18627 -0.316089,-0.18627 -0.502355,-0.50235 -0.186267,-0.31609 -0.186267,-0.68863 v -1.31515 q 0,-0.37253 0.186267,-0.68862 0.186266,-0.31609 0.502355,-0.50236 0.316089,-0.18626 0.688622,-0.18626 0.310441,0 0.581381,0.10724 0.27093,0.10724 0.46848,0.3048 0.0282,0.0226 0.0282,0.0677 0,0.0395 -0.0282,0.0734 -0.0395,0.0452 -0.15804,0.16369 -0.0395,0.0282 -0.079,0.0282 -0.0452,0 -0.0847,-0.0395 -0.28786,-0.27093 -0.722487,-0.27093 -0.248355,0 -0.462844,0.12982 -0.208844,0.12982 -0.333022,0.34996 -0.124178,0.21448 -0.124178,0.46284 v 1.31515 q 0,0.24836 0.124178,0.46849 0.124178,0.21449 0.333022,0.34431 0.214489,0.12983 0.462844,0.12983 0.248357,0 0.457197,-0.12418 0.20885,-0.12418 0.33302,-0.33302 0.12418,-0.21449 0.12418,-0.46285 v -0.44591 h -0.795864 q -0.03387,0 -0.05644,-0.0226 -0.02258,-0.0226 -0.02258,-0.0564 v -0.25965 q 0,-0.0339 0.02258,-0.0564 0.02258,-0.0226 0.05644,-0.0226 h 1.044224 q 0.0847,0 0.14111,0.0621 0.0621,0.0564 0.0621,0.14111 v 0.63782 q 0,0.37254 -0.18627,0.68863 -0.18062,0.31608 -0.49671,0.50235 -0.31609,0.18627 -0.688621,0.18627 z"
           inkscape:connector-curvature="0" />
        <path
           id="path897"
           style="font-style:normal;font-variant:normal;font-weight:normal;font-stretch:normal;font-family:'Miriam Libre';-inkscape-font-specification:'Miriam Libre';letter-spacing:0.93927099999999997px;fill:#ffffff;stroke-width:0.264583"
           d="m 103.07655,111.92519 q -0.0339,0 -0.0564,-0.0226 -0.0226,-0.0226 -0.0226,-0.0564 v -3.64066 q 0,-0.0847 0.0564,-0.14111 0.0621,-0.0621 0.14675,-0.0621 h 0.98213 q 0.31609,0 0.57574,0.1524 0.26529,0.1524 0.41769,0.41769 0.1524,0.25964 0.1524,0.57008 0,0.41205 -0.25965,0.72249 -0.25964,0.31045 -0.65475,0.38947 l 0.93697,1.51271 q 0.0169,0.0226 0.0169,0.0564 0,0.0452 -0.0339,0.0734 -0.0282,0.0282 -0.0734,0.0282 h -0.28786 q -0.0564,0 -0.0847,-0.0508 l -0.98778,-1.59737 h -0.44026 v 1.56915 q 0,0.0339 -0.0226,0.0564 -0.0226,0.0226 -0.0564,0.0226 z m 1.07245,-2.08279 q 0.3048,0 0.50235,-0.19756 0.2032,-0.19756 0.2032,-0.49671 0,-0.31044 -0.2032,-0.508 -0.19755,-0.2032 -0.50235,-0.2032 h -0.68862 v 1.40547 z"
           inkscape:connector-curvature="0" />
        <path
           id="path899"
           style="font-style:normal;font-variant:normal;font-weight:normal;font-stretch:normal;font-family:'Miriam Libre';-inkscape-font-specification:'Miriam Libre';letter-spacing:0.93927099999999997px;fill:#ffffff;stroke-width:0.264583"
           d="m 106.92474,111.92519 q -0.0508,0 -0.079,-0.0339 -0.0226,-0.0395 -0.006,-0.0903 l 1.22485,-3.72533 q 0.0113,-0.0339 0.0395,-0.0508 0.0339,-0.0226 0.0677,-0.0226 h 0.37254 q 0.0339,0 0.0621,0.0226 0.0339,0.0169 0.0452,0.0508 l 1.22484,3.72533 q 0.006,0.0113 0.006,0.0395 0,0.0339 -0.0282,0.0621 -0.0226,0.0226 -0.0621,0.0226 h -0.27658 q -0.0339,0 -0.0677,-0.0169 -0.0282,-0.0226 -0.0395,-0.0564 l -0.31609,-0.98214 h -1.46756 l -0.31609,0.98214 q -0.006,0.0339 -0.0395,0.0564 -0.0339,0.0169 -0.0677,0.0169 z m 2.03764,-1.46755 -0.60395,-1.86831 -0.60396,1.86831 z"
           inkscape:connector-curvature="0" />
        <path
           id="path901"
           style="font-style:normal;font-variant:normal;font-weight:normal;font-stretch:normal;font-family:'Miriam Libre';-inkscape-font-specification:'Miriam Libre';letter-spacing:0.93927099999999997px;fill:#ffffff;stroke-width:0.264583"
           d="m 113.52486,111.99857 q -0.0339,0 -0.0677,-0.0226 -0.0282,-0.0169 -0.0395,-0.0508 l -1.08373,-3.1383 -0.37253,3.04235 q -0.006,0.0452 -0.0395,0.0734 -0.0282,0.0226 -0.0734,0.0226 h -0.26529 q -0.0452,0 -0.0734,-0.0282 -0.0226,-0.0339 -0.0169,-0.0734 l 0.49106,-3.75919 q 0.006,-0.0282 0.0226,-0.0452 0.0226,-0.0169 0.0452,-0.0169 h 0.39511 q 0.0339,0 0.0677,0.0226 0.0339,0.0169 0.0395,0.0508 l 1.11196,3.22297 1.12324,-3.24555 q 0.0169,-0.0508 0.0677,-0.0508 h 0.38947 q 0.0452,0 0.0734,0.0282 0.0339,0.0226 0.0395,0.0677 l 0.48542,3.72533 v 0.0113 q 0,0.0339 -0.0282,0.0621 -0.0226,0.0282 -0.0621,0.0282 h -0.27093 q -0.0452,0 -0.079,-0.0226 -0.0282,-0.0282 -0.0339,-0.0734 l -0.37254,-3.03107 -1.08373,3.12702 q -0.0113,0.0339 -0.0452,0.0508 -0.0282,0.0226 -0.0621,0.0226 z"
           inkscape:connector-curvature="0" />
        <path
           id="path903"
           style="font-style:normal;font-variant:normal;font-weight:normal;font-stretch:normal;font-family:'Miriam Libre';-inkscape-font-specification:'Miriam Libre';letter-spacing:0.93927099999999997px;fill:#ffffff;stroke-width:0.264583"
           d="m 117.54555,111.92519 q -0.0508,0 -0.079,-0.0339 -0.0226,-0.0395 -0.006,-0.0903 l 1.22485,-3.72533 q 0.0113,-0.0339 0.0395,-0.0508 0.0339,-0.0226 0.0677,-0.0226 h 0.37254 q 0.0339,0 0.0621,0.0226 0.0339,0.0169 0.0452,0.0508 l 1.22484,3.72533 q 0.006,0.0113 0.006,0.0395 0,0.0339 -0.0282,0.0621 -0.0226,0.0226 -0.0621,0.0226 h -0.27658 q -0.0339,0 -0.0677,-0.0169 -0.0282,-0.0226 -0.0395,-0.0564 l -0.31608,-0.98214 h -1.46756 l -0.31609,0.98214 q -0.006,0.0339 -0.0395,0.0564 -0.0339,0.0169 -0.0677,0.0169 z m 2.03764,-1.46755 -0.60395,-1.86831 -0.60396,1.86831 z"
           inkscape:connector-curvature="0" />
        <path
           id="path905"
           style="font-style:normal;font-variant:normal;font-weight:normal;font-stretch:normal;font-family:'Miriam Libre';-inkscape-font-specification:'Miriam Libre';letter-spacing:0.93927099999999997px;fill:#ffffff;stroke-width:0.264583"
           d="m 122.34774,111.92519 q -0.0847,0 -0.14676,-0.0564 -0.0564,-0.0621 -0.0564,-0.14676 v -3.51648 q 0,-0.0847 0.0564,-0.14111 0.0621,-0.0621 0.14676,-0.0621 h 1.00471 q 0.40075,0 0.73942,0.2032 0.33866,0.19755 0.53622,0.54186 0.19755,0.33867 0.19755,0.74507 v 0.94262 q 0,0.4064 -0.19755,0.75071 -0.19756,0.33867 -0.53622,0.54187 -0.33867,0.19755 -0.73942,0.19755 z m 1.00471,-0.43462 q 0.27657,0 0.508,-0.13546 0.23142,-0.13547 0.36688,-0.36689 0.13547,-0.23707 0.13547,-0.51365 v -1.02729 q 0,-0.27657 -0.13547,-0.508 -0.13546,-0.23142 -0.36688,-0.36688 -0.23143,-0.13547 -0.508,-0.13547 h -0.74507 v 3.05364 z"
           inkscape:connector-curvature="0" />
        <path
           id="path907"
           style="font-style:normal;font-variant:normal;font-weight:normal;font-stretch:normal;font-family:'Miriam Libre';-inkscape-font-specification:'Miriam Libre';letter-spacing:0.93927099999999997px;fill:#ffffff;stroke-width:0.264583"
           d="m 127.96977,111.99857 q -0.37253,0 -0.69426,-0.18627 -0.31609,-0.18626 -0.50236,-0.50235 -0.18626,-0.31609 -0.18626,-0.68862 v -1.31516 q 0,-0.37253 0.18626,-0.68862 0.18627,-0.31609 0.50236,-0.50235 0.32173,-0.18627 0.69426,-0.18627 0.37254,0 0.68863,0.18627 0.32173,0.18626 0.508,0.50235 0.18626,0.31609 0.18626,0.68862 v 1.31516 q 0,0.37253 -0.18626,0.68862 -0.18627,0.31609 -0.508,0.50235 -0.31609,0.18627 -0.68863,0.18627 z m 0,-0.43462 q 0.24836,0 0.4572,-0.12982 0.21449,-0.12982 0.33867,-0.34431 0.12418,-0.22014 0.12418,-0.46849 v -1.31516 q 0,-0.24835 -0.12418,-0.46284 -0.12418,-0.22013 -0.33867,-0.34996 -0.20884,-0.12982 -0.4572,-0.12982 -0.24835,0 -0.46284,0.12982 -0.20884,0.12983 -0.33302,0.34996 -0.12418,0.21449 -0.12418,0.46284 v 1.31516 q 0,0.24835 0.12418,0.46849 0.12418,0.21449 0.33302,0.34431 0.21449,0.12982 0.46284,0.12982 z"
           inkscape:connector-curvature="0" />
        <path
           id="path909"
           style="font-style:normal;font-variant:normal;font-weight:normal;font-stretch:normal;font-family:'Miriam Libre';-inkscape-font-specification:'Miriam Libre';letter-spacing:0.93927099999999997px;fill:#ffffff;stroke-width:0.264583"
           d="m 131.31199,111.92519 q -0.0339,0 -0.0564,-0.0226 -0.0226,-0.0226 -0.0226,-0.0564 v -3.64066 q 0,-0.0847 0.0564,-0.14111 0.0621,-0.0621 0.14676,-0.0621 h 0.98213 q 0.31609,0 0.57573,0.1524 0.26529,0.1524 0.41769,0.41769 0.1524,0.25964 0.1524,0.57008 0,0.41205 -0.25964,0.72249 -0.25965,0.31045 -0.65476,0.38947 l 0.93698,1.51271 q 0.0169,0.0226 0.0169,0.0564 0,0.0452 -0.0339,0.0734 -0.0282,0.0282 -0.0734,0.0282 h -0.28787 q -0.0564,0 -0.0847,-0.0508 l -0.98778,-1.59737 h -0.44027 v 1.56915 q 0,0.0339 -0.0226,0.0564 -0.0226,0.0226 -0.0564,0.0226 z m 1.07244,-2.08279 q 0.3048,0 0.50236,-0.19756 0.2032,-0.19756 0.2032,-0.49671 0,-0.31044 -0.2032,-0.508 -0.19756,-0.2032 -0.50236,-0.2032 h -0.68862 v 1.40547 z"
           inkscape:connector-curvature="0" />
      </g>
      <g
         transform="translate(-8.5266566,-37.159063)"
         style="font-style:normal;font-variant:normal;font-weight:normal;font-stretch:normal;font-size:38.80559999999999832px;line-height:1.25;font-family:'Miriam Libre';-inkscape-font-specification:'Miriam Libre';letter-spacing:-0.66145799999999999px;fill:#ffffff;fill-opacity:1;stroke:none;stroke-width:0.264583"
         id="text855"
         aria-label="}">
        <path
           sodipodi:nodetypes="sssscsscssccccccsscsscsscsscssccccccsscss"
           inkscape:connector-curvature="0"
           id="path870"
           style="font-style:normal;font-variant:normal;font-weight:normal;font-stretch:normal;font-family:'Miriam Libre';-inkscape-font-specification:'Miriam Libre';letter-spacing:-0.66145799999999999px;fill:#ffffff;stroke-width:0.264583"
           d="m 132.28977,119.87647 c -0.15522,0 -0.28458,-0.0517 -0.38806,-0.15522 -0.10348,-0.10348 -0.15522,-0.23283 -0.15522,-0.38805 v -1.70745 c 0,-0.15522 0.0517,-0.28457 0.15522,-0.38806 0.10348,-0.10348 0.23284,-0.15522 0.38806,-0.15522 h 4.37797 c 0.87959,0 1.57809,-0.28457 2.0955,-0.85372 0.54328,-0.54328 0.81492,-1.26765 0.81492,-2.17312 v -7.60589 c 0,-1.29352 0.0517,-2.30247 0.15522,-3.02684 0.12935,-0.75024 0.37512,-1.35819 0.73731,-1.82386 0.36219,-0.49154 0.9184,-0.85373 1.66864,-1.08656 v -0.0388 c -0.75024,-0.23283 -1.30645,-0.582082 -1.66864,-1.047747 -0.36219,-0.491537 -0.60796,-1.099492 -0.73731,-1.823863 -0.10348,-0.750241 -0.15522,-1.772122 -0.15522,-3.065642 V 86.93052 c 0,-0.905464 -0.27164,-1.629835 -0.81492,-2.173113 -0.51741,-0.569149 -1.21591,-0.853723 -2.0955,-0.853723 h -0.6738 c -0.15523,0 -0.28458,-0.05174 -0.38806,-0.155223 -0.10348,-0.103481 -0.15522,-0.232833 -0.15522,-0.388056 v -1.707446 c 0,-0.155223 0.0517,-0.284575 0.15522,-0.388056 0.10348,-0.103482 0.23283,-0.155223 0.38806,-0.155223 h 0.63499 c 1.86267,0 3.32435,0.569149 4.38504,1.707447 1.06069,1.112427 1.59103,2.522364 1.59103,4.22981 v 7.217842 c 0,1.112427 0.0388,1.940279 0.11641,2.483558 0.0776,0.517408 0.27164,0.97014 0.58209,1.358196 0.31044,0.362185 0.84078,0.64676 1.59103,0.853723 v 3.065644 c -0.75025,0.20696 -1.28059,0.50447 -1.59103,0.89253 -0.31045,0.36219 -0.50448,0.81492 -0.58209,1.35819 -0.0776,0.51741 -0.11641,1.33233 -0.11641,2.44476 v 7.21784 c 0,1.70745 -0.53034,3.11738 -1.59103,4.22981 -1.06069,1.13829 -2.52237,1.70744 -4.38504,1.70744 z" />
      </g>
      <g
         transform="translate(-12.230823,-37.159063)"
         style="font-style:normal;font-variant:normal;font-weight:normal;font-stretch:normal;font-size:38.80559999999999832px;line-height:1.25;font-family:'Miriam Libre';-inkscape-font-specification:'Miriam Libre';letter-spacing:-0.66145799999999999px;fill:#ffffff;fill-opacity:1;stroke:none;stroke-width:0.264583"
         id="text859"
         aria-label="{">
        <path
           sodipodi:nodetypes="ccssccccccsscsscssssscssccccccsscsssssscc"
           inkscape:connector-curvature="0"
           id="path861"
           style="font-style:normal;font-variant:normal;font-weight:normal;font-stretch:normal;font-family:'Miriam Libre';-inkscape-font-specification:'Miriam Libre';letter-spacing:-0.66145799999999999px;fill:#ffffff;stroke-width:0.264583"
           d="m 82.632045,111.80739 c -1.862669,0 -3.324346,-0.56915 -4.385033,-1.70745 -1.060686,-1.11243 -1.591029,-2.52236 -1.591029,-4.22981 v -7.217838 c 0,-1.112427 -0.03881,-1.927345 -0.116417,-2.444753 -0.07761,-0.543279 -0.271639,-0.996011 -0.582084,-1.358196 -0.310445,-0.388056 -0.840788,-0.685566 -1.59103,-0.892529 v -3.065642 c 0.750242,-0.206963 1.280585,-0.491538 1.59103,-0.853723 0.310445,-0.388056 0.504473,-0.840788 0.582084,-1.358196 0.07761,-0.543279 0.116417,-1.371132 0.116417,-2.483559 v -7.217841 c 0,-1.707447 0.530343,-3.117383 1.591029,-4.22981 1.060687,-1.138298 2.522364,-1.707447 4.385033,-1.707447 h 2.751668 c 0.155223,0 0.284575,0.05174 0.388056,0.155223 0.103481,0.103481 0.155222,0.232833 0.155222,0.388056 v 1.707446 c 0,0.155223 -0.05174,0.284575 -0.155222,0.388056 -0.103481,0.103481 -0.232833,0.155222 -0.388056,0.155222 h -2.790474 c -0.879593,0 -1.591029,0.284575 -2.134308,0.853724 -0.517408,0.543278 -0.776112,1.267649 -0.776112,2.173113 v 7.605898 c 0,1.29352 -0.06468,2.315401 -0.194027,3.065642 -0.103482,0.724371 -0.336316,1.332326 -0.698501,1.823863 -0.362186,0.465667 -0.9184,0.814918 -1.668641,1.047751 v 0.03881 c 0.750241,0.232833 1.306455,0.595019 1.668641,1.086557 0.362185,0.465667 0.595019,1.073621 0.698501,1.823863 0.129351,0.724371 0.194027,1.733317 0.194027,3.026837 v 7.605893 c 0,0.90547 0.258704,1.62984 0.776112,2.17311 0.543279,0.56916 1.254715,0.85373 2.134308,0.85373 h 0.144641 c 0.155222,0 0.284574,0.0517 0.388056,0.15522 0.103481,0.10348 0.155222,0.23284 0.155222,0.38806 v 1.70744 c 0,0.15523 -0.05174,0.28458 -0.155222,0.38806 -0.103482,0.10348 -0.232834,0.15522 -0.388056,0.15522 z" />
      </g>
    </g>
    <rect
       y="21.240482"
       x="111.26424"
       height="220.86665"
       width="393.65399"
       id="rect2068"
       style="fill:#ffffff;stroke:none;stroke-width:0.472298;stroke-linejoin:round;stroke-miterlimit:4;stroke-dasharray:none;stroke-dashoffset:0;filter:url(#filter3733)" />
    <g
       style="font-style:normal;font-variant:normal;font-weight:normal;font-stretch:normal;font-size:19.7556px;line-height:1.25;font-family:'Miriam Libre';-inkscape-font-specification:'Miriam Libre';letter-spacing:-2.19604px;fill:#ffffff;fill-opacity:0.315789;stroke:none;stroke-width:0.264583"
       id="text3749"
       aria-label="http://">
      <path
         id="path3787"
         style="font-style:normal;font-variant:normal;font-weight:normal;font-stretch:normal;font-family:'Miriam Libre';-inkscape-font-specification:'Miriam Libre';letter-spacing:-2.19604px;fill:#ffffff;fill-opacity:0.315789;stroke-width:0.264583"
         d="m 18.561853,272.1864 q -0.118533,0 -0.197556,-0.079 -0.07902,-0.079 -0.07902,-0.19756 v -14.44134 q 0,-0.11853 0.07902,-0.19756 0.07902,-0.079 0.197556,-0.079 h 0.98778 q 0.118534,0 0.197556,0.079 0.07902,0.079 0.07902,0.19756 v 4.91914 q 0.513645,-0.80998 1.323625,-1.22484 0.829735,-0.41487 1.857026,-0.41487 1.679226,0 2.706517,1.02729 1.047047,1.02729 1.047047,2.70652 v 7.4281 q 0,0.11854 -0.07902,0.19756 -0.07902,0.079 -0.197556,0.079 h -0.98778 q -0.118534,0 -0.197556,-0.079 -0.07902,-0.079 -0.07902,-0.19756 v -7.13177 q 0,-1.26436 -0.67169,-1.91629 -0.651935,-0.67169 -1.778004,-0.67169 -1.323625,0 -2.133605,0.86924 -0.809979,0.86925 -0.809979,2.39043 v 6.46008 q 0,0.11854 -0.07902,0.19756 -0.07902,0.079 -0.197556,0.079 z" />
      <path
         id="path3789"
         style="font-style:normal;font-variant:normal;font-weight:normal;font-stretch:normal;font-family:'Miriam Libre';-inkscape-font-specification:'Miriam Libre';letter-spacing:-2.19604px;fill:#ffffff;fill-opacity:0.315789;stroke-width:0.264583"
         d="m 31.454151,272.1864 q -1.422403,0 -2.232383,-0.84949 -0.809979,-0.86925 -0.809979,-2.17312 v -6.7169 h -1.30387 q -0.118533,0 -0.197556,-0.079 -0.07902,-0.079 -0.07902,-0.19756 v -0.889 q 0,-0.11853 0.07902,-0.19756 0.07902,-0.079 0.197556,-0.079 h 1.30387 v -2.07434 q 0,-0.11853 0.07902,-0.19755 0.07902,-0.079 0.197556,-0.079 h 0.98778 q 0.118534,0 0.197556,0.079 0.07902,0.079 0.07902,0.19755 v 2.07434 h 3.476985 q 0.118534,0 0.197556,0.079 0.07902,0.079 0.07902,0.19756 v 0.90876 q 0,0.11853 -0.07902,0.19755 -0.07902,0.079 -0.197556,0.079 h -3.476985 v 6.51934 q 0,0.77047 0.454378,1.24461 0.474135,0.45438 1.224848,0.47413 l 1.797759,0.0198 q 0.118534,0 0.197556,0.079 0.07902,0.079 0.07902,0.19756 v 0.90875 q 0,0.11854 -0.07902,0.19756 -0.07902,0.079 -0.197556,0.079 z" />
      <path
         id="path3791"
         style="font-style:normal;font-variant:normal;font-weight:normal;font-stretch:normal;font-family:'Miriam Libre';-inkscape-font-specification:'Miriam Libre';letter-spacing:-2.19604px;fill:#ffffff;fill-opacity:0.315789;stroke-width:0.264583"
         d="m 37.824014,272.1864 q -1.422404,0 -2.232383,-0.84949 -0.80998,-0.86925 -0.80998,-2.17312 v -6.7169 h -1.303869 q -0.118534,0 -0.197556,-0.079 -0.07902,-0.079 -0.07902,-0.19756 v -0.889 q 0,-0.11853 0.07902,-0.19756 0.07902,-0.079 0.197556,-0.079 h 1.303869 v -2.07434 q 0,-0.11853 0.07902,-0.19755 0.07902,-0.079 0.197556,-0.079 h 0.98778 q 0.118533,0 0.197556,0.079 0.07902,0.079 0.07902,0.19755 v 2.07434 h 3.476986 q 0.118533,0 0.197556,0.079 0.07902,0.079 0.07902,0.19756 v 0.90876 q 0,0.11853 -0.07902,0.19755 -0.07902,0.079 -0.197556,0.079 h -3.476986 v 6.51934 q 0,0.77047 0.454379,1.24461 0.474134,0.45438 1.224847,0.47413 l 1.79776,0.0198 q 0.118533,0 0.197556,0.079 0.07902,0.079 0.07902,0.19756 v 0.90875 q 0,0.11854 -0.07902,0.19756 -0.07902,0.079 -0.197556,0.079 z" />
      <path
         id="path3793"
         style="font-style:normal;font-variant:normal;font-weight:normal;font-stretch:normal;font-family:'Miriam Libre';-inkscape-font-specification:'Miriam Libre';letter-spacing:-2.19604px;fill:#ffffff;fill-opacity:0.315789;stroke-width:0.264583"
         d="m 41.028351,275.99923 q -0.118534,0 -0.197556,-0.079 -0.07902,-0.079 -0.07902,-0.19756 v -14.44134 q 0,-0.11853 0.07902,-0.19756 0.07902,-0.079 0.197556,-0.079 h 0.908757 q 0.118534,0 0.197556,0.079 0.07902,0.079 0.07902,0.19756 v 0.86925 q 0.553156,-0.67169 1.323625,-1.02729 0.790224,-0.37536 1.679226,-0.37536 1.126069,0 2.074338,0.55316 0.948269,0.55315 1.501425,1.50142 0.553157,0.94827 0.553157,2.07434 v 3.43747 q 0,1.12607 -0.553157,2.07434 -0.553156,0.94827 -1.521181,1.50143 -0.948269,0.55315 -2.074338,0.55315 -0.809979,0 -1.580448,-0.29633 -0.750713,-0.29633 -1.323625,-0.82974 v 4.4055 q 0,0.11854 -0.07902,0.19756 -0.07902,0.079 -0.197556,0.079 z m 4.030142,-5.01792 q 0.750713,0 1.382892,-0.3556 0.632179,-0.37536 0.98778,-1.00754 0.375356,-0.63218 0.375356,-1.38289 v -3.27943 q 0,-0.75071 -0.375356,-1.38289 -0.355601,-0.63218 -0.98778,-0.98778 -0.632179,-0.37536 -1.382892,-0.37536 -0.750713,0 -1.402648,0.37536 -0.632179,0.3556 -1.007535,0.98778 -0.355601,0.63218 -0.355601,1.38289 v 3.27943 q 0,0.75071 0.355601,1.38289 0.375356,0.63218 1.007535,1.00754 0.651935,0.3556 1.402648,0.3556 z" />
      <path
         id="path3795"
         style="font-style:normal;font-variant:normal;font-weight:normal;font-stretch:normal;font-family:'Miriam Libre';-inkscape-font-specification:'Miriam Libre';letter-spacing:-2.19604px;fill:#ffffff;fill-opacity:0.315789;stroke-width:0.264583"
         d="m 50.899893,264.85707 q -0.118534,0 -0.217312,-0.079 -0.07902,-0.0988 -0.07902,-0.21731 v -1.87678 q 0,-0.11854 0.07902,-0.19756 0.09878,-0.0988 0.217312,-0.0988 h 1.145825 q 0.118533,0 0.197556,0.0988 0.09878,0.079 0.09878,0.19756 v 1.87678 q 0,0.11853 -0.09878,0.21731 -0.07902,0.079 -0.197556,0.079 z m 0,7.32933 q -0.118534,0 -0.217312,-0.079 -0.07902,-0.0988 -0.07902,-0.21731 v -1.87678 q 0,-0.11854 0.07902,-0.19756 0.09878,-0.0988 0.217312,-0.0988 h 1.145825 q 0.118533,0 0.197556,0.0988 0.09878,0.079 0.09878,0.19756 v 1.87678 q 0,0.11853 -0.09878,0.21731 -0.07902,0.079 -0.197556,0.079 z" />
      <path
         id="path3797"
         style="font-style:normal;font-variant:normal;font-weight:normal;font-stretch:normal;font-family:'Miriam Libre';-inkscape-font-specification:'Miriam Libre';letter-spacing:-2.19604px;fill:#ffffff;fill-opacity:0.315789;stroke-width:0.264583"
         d="m 52.587679,273.27296 q -0.07902,0 -0.138289,-0.0593 -0.03951,-0.0593 0,-0.15804 l 6.400814,-15.62668 q 0.09878,-0.23707 0.355601,-0.23707 h 0.869247 q 0.07902,0 0.118533,0.0593 0.05927,0.0593 0.01976,0.15804 l -6.381059,15.62668 q -0.07902,0.23707 -0.355601,0.23707 z" />
      <path
         id="path3799"
         style="font-style:normal;font-variant:normal;font-weight:normal;font-stretch:normal;font-family:'Miriam Libre';-inkscape-font-specification:'Miriam Libre';letter-spacing:-2.19604px;fill:#ffffff;fill-opacity:0.315789;stroke-width:0.264583"
         d="m 58.378763,273.27296 q -0.07902,0 -0.138289,-0.0593 -0.03951,-0.0593 0,-0.15804 l 6.400815,-15.62668 q 0.09878,-0.23707 0.3556,-0.23707 h 0.869247 q 0.07902,0 0.118533,0.0593 0.05927,0.0593 0.01976,0.15804 l -6.381059,15.62668 q -0.07902,0.23707 -0.355601,0.23707 z" />
    </g>
    <g
       style="font-style:normal;font-variant:normal;font-weight:bold;font-stretch:normal;font-size:9.87778px;line-height:1.25;font-family:'Miriam Libre';-inkscape-font-specification:'Miriam Libre Bold';fill:#ffffff;fill-opacity:0.651822;stroke:none;stroke-width:0.264583"
       id="text3753"
       aria-label="erlimar">
      <path
         id="path3772"
         style="font-style:normal;font-variant:normal;font-weight:bold;font-stretch:normal;font-size:9.87778px;font-family:'Miriam Libre';-inkscape-font-specification:'Miriam Libre Bold';fill:#ffffff;fill-opacity:0.651822;stroke-width:0.264583"
         d="m 67.696126,269.82306 q -0.642056,0 -1.185334,-0.31609 -0.5334,-0.31609 -0.849489,-0.85937 -0.316089,-0.54327 -0.316089,-1.18533 v -1.0668 q 0,-0.64206 0.316089,-1.18533 0.316089,-0.54328 0.849489,-0.85937 0.543278,-0.31609 1.185334,-0.31609 0.642056,0 1.175456,0.31609 0.543278,0.31609 0.859367,0.85937 0.316089,0.54327 0.316089,1.18533 v 0.66181 q 0,0.1778 -0.128412,0.30621 -0.118533,0.11854 -0.296333,0.11854 h -3.091745 v 0.0494 q 0,0.48402 0.335844,0.82974 0.345723,0.33584 0.829734,0.33584 h 1.570567 q 0.0889,0 0.148167,0.0593 0.05927,0.0593 0.05927,0.14817 v 0.7112 q 0,0.0889 -0.05927,0.14816 -0.05927,0.0593 -0.148167,0.0593 z m 1.165578,-3.40784 v -0.0889 q 0,-0.48401 -0.345722,-0.81985 -0.335845,-0.34572 -0.819856,-0.34572 -0.484011,0 -0.829734,0.34572 -0.335844,0.33584 -0.335844,0.81985 v 0.0889 z" />
      <path
         id="path3774"
         style="font-style:normal;font-variant:normal;font-weight:bold;font-stretch:normal;font-size:9.87778px;font-family:'Miriam Libre';-inkscape-font-specification:'Miriam Libre Bold';fill:#ffffff;fill-opacity:0.651822;stroke-width:0.264583"
         d="m 71.252898,269.82306 q -0.0889,0 -0.148166,-0.0593 -0.05927,-0.0593 -0.05927,-0.14816 v -0.73096 q 0,-0.0889 0.05927,-0.14817 0.05927,-0.0593 0.148166,-0.0593 h 0.750712 v -3.39796 h -0.849489 q -0.0889,0 -0.148167,-0.0593 -0.05927,-0.0593 -0.05927,-0.14816 v -0.70133 q 0,-0.0889 0.05927,-0.14816 0.05927,-0.0593 0.148167,-0.0593 h 1.531056 q 0.1778,0 0.296333,0.12841 0.128411,0.11854 0.128411,0.29634 v 0.3556 l 0.5334,-0.42475 q 0.296334,-0.23707 0.513645,-0.32597 0.217311,-0.0988 0.513644,-0.0988 h 0.306211 q 0.0889,0 0.148167,0.0593 0.05927,0.0593 0.05927,0.14817 v 0.76059 q 0,0.0889 -0.05927,0.14817 -0.05927,0.0593 -0.148167,0.0593 h -0.256822 q -0.256822,0 -0.4445,0.0889 -0.187678,0.0889 -0.572911,0.39511 l -0.543278,0.43463 v 2.4892 h 0.9779 q 0.0889,0 0.148167,0.0593 0.05927,0.0593 0.05927,0.14817 v 0.73096 q 0,0.0889 -0.05927,0.14816 -0.05927,0.0593 -0.148167,0.0593 z" />
      <path
         id="path3776"
         style="font-style:normal;font-variant:normal;font-weight:bold;font-stretch:normal;font-size:9.87778px;font-family:'Miriam Libre';-inkscape-font-specification:'Miriam Libre Bold';fill:#ffffff;fill-opacity:0.651822;stroke-width:0.264583"
         d="m 77.120299,269.82306 q -0.1778,0 -0.306211,-0.11853 -0.118533,-0.12842 -0.118533,-0.30622 v -5.99581 h -0.898878 q -0.0889,0 -0.148167,-0.0593 -0.05927,-0.0593 -0.05927,-0.14817 v -0.73096 q 0,-0.0889 0.05927,-0.14816 0.05927,-0.0593 0.148167,-0.0593 h 1.659467 q 0.1778,0 0.296333,0.12841 0.128411,0.11853 0.128411,0.29633 v 5.99582 h 0.898878 q 0.0889,0 0.148167,0.0593 0.05927,0.0593 0.05927,0.14817 v 0.73096 q 0,0.0889 -0.05927,0.14816 -0.05927,0.0593 -0.148167,0.0593 z" />
      <path
         id="path3778"
         style="font-style:normal;font-variant:normal;font-weight:bold;font-stretch:normal;font-size:9.87778px;font-family:'Miriam Libre';-inkscape-font-specification:'Miriam Libre Bold';fill:#ffffff;fill-opacity:0.651822;stroke-width:0.264583"
         d="m 80.853174,263.50128 q -0.0889,0 -0.148166,-0.0593 -0.05927,-0.0593 -0.05927,-0.14816 v -1.07668 q 0,-0.0889 0.05927,-0.14817 0.05927,-0.0593 0.148166,-0.0593 h 0.67169 q 0.0889,0 0.148166,0.0593 0.05927,0.0593 0.05927,0.14817 v 1.07668 q 0,0.0889 -0.05927,0.14816 -0.05927,0.0593 -0.148166,0.0593 z m 0.237067,6.32178 q -0.207433,0 -0.3556,-0.13829 -0.138289,-0.14817 -0.138289,-0.3556 v -4.04001 h -0.8001 q -0.0889,0 -0.148167,-0.0593 -0.05927,-0.0593 -0.05927,-0.14817 v -0.7112 q 0,-0.0889 0.05927,-0.14816 0.05927,-0.0593 0.148167,-0.0593 h 1.491545 q 0.207433,0 0.345722,0.14817 0.148167,0.13829 0.148167,0.34572 v 4.04001 h 0.8001 q 0.0889,0 0.148167,0.0593 0.05927,0.0593 0.05927,0.14817 v 0.7112 q 0,0.0889 -0.05927,0.14816 -0.05927,0.0593 -0.148167,0.0593 z" />
      <path
         id="path3780"
         style="font-style:normal;font-variant:normal;font-weight:bold;font-stretch:normal;font-size:9.87778px;font-family:'Miriam Libre';-inkscape-font-specification:'Miriam Libre Bold';fill:#ffffff;fill-opacity:0.651822;stroke-width:0.264583"
         d="m 84.087992,269.82306 q -0.0889,0 -0.148166,-0.0593 -0.05927,-0.0593 -0.05927,-0.14816 v -5.24511 q 0,-0.0889 0.05927,-0.14816 0.05927,-0.0593 0.148166,-0.0593 h 0.770467 q 0.0889,0 0.148167,0.0593 0.05927,0.0593 0.05927,0.14816 v 0.51365 q 0.286455,-0.42475 0.671689,-0.63218 0.395111,-0.21731 0.829733,-0.21731 0.543278,0 0.958145,0.25682 0.424744,0.25682 0.671689,0.73096 0.276578,-0.46426 0.740833,-0.72108 0.464256,-0.2667 0.997656,-0.2667 0.859367,0 1.363134,0.57291 0.503767,0.56303 0.503767,1.50142 v 3.50662 q 0,0.0889 -0.05927,0.14816 -0.05927,0.0593 -0.148167,0.0593 h -0.770467 q -0.0889,0 -0.148166,-0.0593 -0.05927,-0.0593 -0.05927,-0.14816 v -3.35845 q 0,-0.52352 -0.237067,-0.8001 -0.237067,-0.28646 -0.681567,-0.28646 -0.582789,0 -0.928511,0.38524 -0.335844,0.37535 -0.335844,1.03717 v 3.0226 q 0,0.0889 -0.05927,0.14816 -0.05927,0.0593 -0.148167,0.0593 h -0.770467 q -0.0889,0 -0.148166,-0.0593 -0.05927,-0.0593 -0.05927,-0.14816 v -3.35845 q 0,-0.52352 -0.237067,-0.8001 -0.237066,-0.28646 -0.681567,-0.28646 -0.582789,0 -0.928511,0.38524 -0.335844,0.37535 -0.335844,1.03717 v 3.0226 q 0,0.0889 -0.05927,0.14816 -0.05927,0.0593 -0.148167,0.0593 z" />
      <path
         id="path3782"
         style="font-style:normal;font-variant:normal;font-weight:bold;font-stretch:normal;font-size:9.87778px;font-family:'Miriam Libre';-inkscape-font-specification:'Miriam Libre Bold';fill:#ffffff;fill-opacity:0.651822;stroke-width:0.264583"
         d="m 94.786862,269.95147 q -0.829733,0 -1.353255,-0.46426 -0.513645,-0.47413 -0.513645,-1.22484 0,-0.68157 0.474133,-1.12607 0.474134,-0.45437 1.333501,-0.59266 0.217311,-0.0198 0.414867,-0.0593 0.691444,-0.079 0.839611,-0.11853 0.365478,-0.0593 0.365478,-0.41487 0,-0.36548 -0.306211,-0.58279 -0.296334,-0.22719 -0.750712,-0.22719 -0.8001,0 -1.165578,0.58279 -0.07902,0.12841 -0.187678,0.12841 -0.07902,0 -0.128411,-0.0395 l -0.553155,-0.37536 q -0.0889,-0.0593 -0.0889,-0.16792 0,-0.0296 0.01976,-0.0889 0.286456,-0.54328 0.849489,-0.83961 0.563034,-0.30621 1.274234,-0.30621 0.651933,0 1.145822,0.24694 0.493889,0.24695 0.760589,0.70133 0.276578,0.45437 0.276578,1.04704 v 3.58564 q 0,0.0889 -0.05927,0.14816 -0.05927,0.0593 -0.148166,0.0593 h -0.671689 q -0.0889,0 -0.148167,-0.0494 -0.05927,-0.0593 -0.05927,-0.15804 v -0.38524 q -0.681566,0.72108 -1.619956,0.72108 z m 0.0889,-1.05692 q 0.385234,0 0.730956,-0.19756 0.345722,-0.19755 0.553156,-0.51364 0.217311,-0.32597 0.217311,-0.68157 v -0.19755 l -0.740833,0.10865 q -0.602545,0.0692 -0.780345,0.10866 -0.809978,0.14816 -0.809978,0.70132 0,0.30621 0.227189,0.49389 0.227189,0.1778 0.602544,0.1778 z" />
      <path
         id="path3784"
         style="font-style:normal;font-variant:normal;font-weight:bold;font-stretch:normal;font-size:9.87778px;font-family:'Miriam Libre';-inkscape-font-specification:'Miriam Libre Bold';fill:#ffffff;fill-opacity:0.651822;stroke-width:0.264583"
         d="m 98.879814,269.82306 q -0.0889,0 -0.148166,-0.0593 -0.05927,-0.0593 -0.05927,-0.14816 v -0.73096 q 0,-0.0889 0.05927,-0.14817 0.05927,-0.0593 0.148166,-0.0593 h 0.750712 v -3.39796 h -0.849489 q -0.0889,0 -0.148167,-0.0593 -0.05927,-0.0593 -0.05927,-0.14816 v -0.70133 q 0,-0.0889 0.05927,-0.14816 0.05927,-0.0593 0.148167,-0.0593 h 1.531053 q 0.1778,0 0.29634,0.12841 0.12841,0.11854 0.12841,0.29634 v 0.3556 l 0.5334,-0.42475 q 0.29633,-0.23707 0.51364,-0.32597 0.21731,-0.0988 0.51365,-0.0988 h 0.30621 q 0.0889,0 0.14816,0.0593 0.0593,0.0593 0.0593,0.14817 v 0.76059 q 0,0.0889 -0.0593,0.14817 -0.0593,0.0593 -0.14816,0.0593 h -0.25682 q -0.25683,0 -0.4445,0.0889 -0.18768,0.0889 -0.57292,0.39511 l -0.54327,0.43463 v 2.4892 h 0.9779 q 0.0889,0 0.14816,0.0593 0.0593,0.0593 0.0593,0.14817 v 0.73096 q 0,0.0889 -0.0593,0.14816 -0.0593,0.0593 -0.14816,0.0593 z" />
    </g>
    <g
       style="font-style:normal;font-variant:normal;font-weight:bold;font-stretch:normal;font-size:9.87778px;line-height:1.25;font-family:'Miriam Libre';-inkscape-font-specification:'Miriam Libre Bold';fill:#ffffff;fill-opacity:0.408907;stroke:none;stroke-width:0.264583"
       id="text3761"
       aria-label=".com">
      <path
         id="path3763"
         style="font-style:normal;font-variant:normal;font-weight:bold;font-stretch:normal;font-size:9.87778px;font-family:'Miriam Libre';-inkscape-font-specification:'Miriam Libre Bold';fill:#ffffff;fill-opacity:0.408907;stroke-width:0.264583"
         d="m 104.75472,270.06013 q -0.34572,0 -0.59266,-0.23707 -0.23707,-0.23707 -0.23707,-0.58279 0,-0.34572 0.23707,-0.58279 0.24694,-0.23707 0.59266,-0.23707 0.33585,0 0.57292,0.24695 0.23706,0.23707 0.23706,0.57291 0,0.33584 -0.23706,0.58279 -0.23707,0.23707 -0.57292,0.23707 z" />
      <path
         id="path3765"
         style="font-style:normal;font-variant:normal;font-weight:bold;font-stretch:normal;font-size:9.87778px;font-family:'Miriam Libre';-inkscape-font-specification:'Miriam Libre Bold';fill:#ffffff;fill-opacity:0.408907;stroke-width:0.264583"
         d="m 109.00695,269.95147 q -0.64205,0 -1.18533,-0.31609 -0.5334,-0.31609 -0.84949,-0.85937 -0.31609,-0.54327 -0.31609,-1.18533 v -1.19521 q 0,-0.64206 0.31609,-1.18533 0.31609,-0.54328 0.84949,-0.85937 0.54328,-0.31609 1.18533,-0.31609 0.49389,0 0.94827,0.20743 0.45438,0.19756 0.78035,0.56304 0.0691,0.0691 0.0691,0.15804 0,0.10866 -0.0889,0.19756 l -0.42474,0.42474 q -0.0692,0.0691 -0.15805,0.0691 -0.0889,0 -0.16792,-0.0889 -0.38523,-0.38524 -0.95815,-0.38524 -0.48401,0 -0.82973,0.34572 -0.33584,0.33585 -0.33584,0.81986 v 1.29399 q 0,0.48401 0.33584,0.82973 0.34572,0.33585 0.82973,0.33585 0.57292,0 0.95815,-0.38524 0.079,-0.0889 0.16792,-0.0889 0.0889,0 0.15805,0.0692 l 0.42474,0.42474 q 0.0889,0.0889 0.0889,0.19756 0,0.0889 -0.0691,0.15804 -0.32597,0.36548 -0.78035,0.57291 -0.45438,0.19756 -0.94827,0.19756 z" />
      <path
         id="path3767"
         style="font-style:normal;font-variant:normal;font-weight:bold;font-stretch:normal;font-size:9.87778px;font-family:'Miriam Libre';-inkscape-font-specification:'Miriam Libre Bold';fill:#ffffff;fill-opacity:0.408907;stroke-width:0.264583"
         d="m 114.0616,269.95147 q -0.64206,0 -1.18533,-0.30621 -0.5334,-0.31609 -0.84949,-0.84949 -0.31609,-0.5334 -0.31609,-1.1557 v -1.29399 q 0,-0.6223 0.31609,-1.1557 0.31609,-0.5334 0.84949,-0.83961 0.54327,-0.31609 1.18533,-0.31609 0.64206,0 1.17546,0.31609 0.54327,0.30621 0.85936,0.83961 0.31609,0.5334 0.31609,1.1557 v 1.29399 q 0,0.6223 -0.31609,1.1557 -0.31609,0.5334 -0.85936,0.84949 -0.5334,0.30621 -1.17546,0.30621 z m 0,-1.14582 q 0.48401,0 0.81986,-0.33585 0.34572,-0.34572 0.34572,-0.82973 v -1.29399 q 0,-0.48401 -0.34572,-0.81986 -0.33585,-0.34572 -0.81986,-0.34572 -0.48401,0 -0.82973,0.34572 -0.33585,0.33585 -0.33585,0.81986 v 1.29399 q 0,0.48401 0.33585,0.82973 0.34572,0.33585 0.82973,0.33585 z" />
      <path
         id="path3769"
         style="font-style:normal;font-variant:normal;font-weight:bold;font-stretch:normal;font-size:9.87778px;font-family:'Miriam Libre';-inkscape-font-specification:'Miriam Libre Bold';fill:#ffffff;fill-opacity:0.408907;stroke-width:0.264583"
         d="m 117.97119,269.82306 q -0.0889,0 -0.14816,-0.0593 -0.0593,-0.0593 -0.0593,-0.14816 v -5.24511 q 0,-0.0889 0.0593,-0.14816 0.0593,-0.0593 0.14816,-0.0593 h 0.77047 q 0.0889,0 0.14817,0.0593 0.0593,0.0593 0.0593,0.14816 v 0.51365 q 0.28646,-0.42475 0.67169,-0.63218 0.39511,-0.21731 0.82974,-0.21731 0.54327,0 0.95814,0.25682 0.42475,0.25682 0.67169,0.73096 0.27658,-0.46426 0.74083,-0.72108 0.46426,-0.2667 0.99766,-0.2667 0.85937,0 1.36313,0.57291 0.50377,0.56303 0.50377,1.50142 v 3.50662 q 0,0.0889 -0.0593,0.14816 -0.0593,0.0593 -0.14816,0.0593 h -0.77047 q -0.0889,0 -0.14817,-0.0593 -0.0593,-0.0593 -0.0593,-0.14816 v -3.35845 q 0,-0.52352 -0.23707,-0.8001 -0.23707,-0.28646 -0.68157,-0.28646 -0.58279,0 -0.92851,0.38524 -0.33584,0.37535 -0.33584,1.03717 v 3.0226 q 0,0.0889 -0.0593,0.14816 -0.0593,0.0593 -0.14817,0.0593 h -0.77046 q -0.0889,0 -0.14817,-0.0593 -0.0593,-0.0593 -0.0593,-0.14816 v -3.35845 q 0,-0.52352 -0.23706,-0.8001 -0.23707,-0.28646 -0.68157,-0.28646 -0.58279,0 -0.92851,0.38524 -0.33585,0.37535 -0.33585,1.03717 v 3.0226 q 0,0.0889 -0.0593,0.14816 -0.0593,0.0593 -0.14817,0.0593 z" />
    </g>
  </g>
</svg>
